<?xml version="1.0" encoding="UTF-8" standalone="no"?>
<!-- Created with Inkscape (http://www.inkscape.org/) -->

<svg
   width="103.38046mm"
   height="34.468437mm"
   viewBox="0 0 103.38046 34.468437"
   version="1.1"
   id="svg5"
   xml:space="preserve"
   inkscape:version="1.2.1 (9c6d41e410, 2022-07-14)"
   sodipodi:docname="tools-dark-detail.svg"
   xmlns:inkscape="http://www.inkscape.org/namespaces/inkscape"
   xmlns:sodipodi="http://sodipodi.sourceforge.net/DTD/sodipodi-0.dtd"
   xmlns="http://www.w3.org/2000/svg"
   xmlns:svg="http://www.w3.org/2000/svg"><sodipodi:namedview
     id="namedview7"
     pagecolor="#ffffff"
     bordercolor="#000000"
     borderopacity="0.25"
     inkscape:showpageshadow="2"
     inkscape:pageopacity="0.0"
     inkscape:pagecheckerboard="0"
     inkscape:deskcolor="#d1d1d1"
     inkscape:document-units="mm"
     showgrid="false"
     inkscape:zoom="2.1089995"
     inkscape:cx="207.20726"
     inkscape:cy="27.501192"
     inkscape:window-width="1920"
     inkscape:window-height="1017"
     inkscape:window-x="-8"
     inkscape:window-y="-8"
     inkscape:window-maximized="1"
     inkscape:current-layer="text2523"
     showguides="true"><sodipodi:guide
       position="65.544173,8.1669632"
       orientation="0,1"
       id="guide2525"
       inkscape:locked="false"
       inkscape:label=""
       inkscape:color="rgb(224,27,36)" /></sodipodi:namedview><defs
     id="defs2" /><g
     inkscape:label="Camada 1"
     inkscape:groupmode="layer"
     id="layer1"
     transform="translate(-16.628474,-25.636657)"><path
       id="rect300"
       style="fill:#00b4ff;fill-opacity:1;stroke:#00b4ff;stroke-width:0.207822;stroke-linecap:round;stroke-linejoin:round;stroke-opacity:1;paint-order:markers stroke fill"
       d="m 33.000124,25.740567 v 5.17e-4 c -10.887032,0.133065 -16.19938,8.369994 -16.26309,17.549836 -0.266128,12.59337 10.93574,16.85583 16.484782,16.70647 h 8.649085 V 56.9366 l -9.046993,0.0139 C 23.493384,55.45771 20.286053,48.916 20.188503,43.25836 19.947986,33.237888 27.442767,29.055988 33.06317,29.018403 c 9.16365,0.432205 11.96224,5.1521 12.308288,11.345132 -0.347603,6.157102 -3.00106,7.932304 -7.471374,8.252125 -5.265852,0.56677 -8.813955,-1.13647 -8.485271,-4.38888 l 10.905278,0.007 c 0.681859,-6.02264 -2.505173,-9.962942 -7.237801,-9.920842 -4.285401,-0.01486 -7.739704,2.543762 -7.843966,8.951912 0.170716,4.32141 1.410484,8.48547 10.674284,8.61188 5.999614,0.30536 12.588641,-2.44688 12.685531,-11.33678 -0.134434,-9.203712 -6.40763,-14.712873 -15.598015,-14.799383 z m 0.01654,11.781713 c 1.555707,-0.007 3.35225,1.14939 3.35225,4.16925 h -6.959265 c -0.10764,-2.72649 1.580238,-4.24122 3.457153,-4.16512 0.04961,-0.003 0.09968,-0.004 0.149862,-0.004 z"
       sodipodi:nodetypes="cccccccccccccccccccccccc"
       inkscape:export-filename="Panel-white-detail.svg"
       inkscape:export-xdpi="96"
       inkscape:export-ydpi="96" /><g
       aria-label="Panel"
       id="text2523"
       style="font-size:27.0718px;line-height:27.9178px;-inkscape-font-specification:sans-serif;text-align:center;text-anchor:middle;fill:#000000;fill-opacity:1;stroke:#000000;stroke-width:0.3;stroke-linecap:square;stroke-linejoin:miter;stroke-miterlimit:3;stroke-dasharray:none;stroke-opacity:1;paint-order:markers stroke fill"><text
         xml:space="preserve"
         style="font-size:30.6503px;line-height:31.6081px;font-family:'Microsoft Sans Serif';-inkscape-font-specification:'Microsoft Sans Serif';text-align:center;text-anchor:middle;mix-blend-mode:lighten;fill:#000000;fill-opacity:1;stroke:none;stroke-width:1.08604;stroke-linecap:square;stroke-miterlimit:3;paint-order:markers stroke fill"
         x="84.171204"
         y="51.596531"
         id="text379"><tspan
           sodipodi:role="line"
           id="tspan377"
           style="font-size:30.6503px;fill:#000000;fill-opacity:1;stroke:none;stroke-width:1.08604"
           x="84.171204"
           y="51.596531">tools</tspan></text></g></g></svg>
